<?xml version="1.0" encoding="UTF-8"?>
<svg version="1.1" viewBox="0 0 1000 236" xmlns="http://www.w3.org/2000/svg">
<title>Coinage</title>
<desc>https://coina.ge</desc>
<g fill="none" fill-rule="evenodd">
<g fill-rule="nonzero">
<path d="m969.09 126.29v15.939h30.062v9.7618h-39.848v-66.991h39.163v9.4233h-29.377v10.62 5.4884 6.6791h26.456v9.0788h-26.456zm-64.244-11.478v1.8859c0.17573 0.51378 0.17573 1.1968 0.17573 1.8859 0 0.85227-0.17573 1.5353-0.17573 2.3936 0 0.85831-0.16967 1.5474-0.33934 2.4057-0.51507 4.1042-1.7149 7.8759-3.6055 11.303-1.8845 3.5965-4.4659 6.6791-7.3867 9.2541-2.9207 2.5689-6.1808 4.4548-9.962 5.9961-3.6055 1.3721-7.7321 2.2244-11.853 2.2244-4.6356 0-8.9319-0.85227-13.059-2.7381-4.1145-1.7166-7.726-4.1163-10.641-7.1929-3.0965-3.0887-5.3264-6.5099-7.2231-10.626-1.7149-4.1163-2.5753-8.3958-2.5753-13.02 0-4.7993 0.86047-9.0788 2.5753-13.195 1.8967-3.941 4.1266-7.5374 7.2231-10.626 2.9147-3.0827 6.5262-5.4823 10.641-7.1929 4.1266-1.7106 8.4229-2.5689 13.059-2.5689 3.4358 0 6.6959 0.34453 9.962 1.3721 3.0904 1.0215 6.0112 2.5629 8.5865 4.2795 2.7511 1.8859 4.9871 4.1102 7.0413 6.6852 2.0663 2.3936 3.7812 5.307 5.1567 8.2205h-11.338c-2.0603-3.4272-4.8053-6.1654-8.2411-8.2205-3.4358-2.0612-7.0473-3.0887-11.168-3.0887-3.2601 0-6.1869 0.51378-9.1016 1.8859-2.7511 1.2028-5.3264 3.0827-7.3867 5.1378-2.0663 2.2304-3.7812 4.7993-4.981 7.7127-1.1998 3.0827-1.7149 6.1654-1.7149 9.5986 0 3.2519 0.51507 6.5099 1.7149 9.4173 1.1998 2.9195 2.9147 5.4823 4.981 7.7188 2.0603 2.2244 4.6356 3.9349 7.3867 5.1318 2.9147 1.3781 5.8415 2.0612 9.1016 2.0612 2.7511 0 5.3264-0.51378 7.9018-1.5474 2.4057-1.0276 4.8053-2.3936 6.7019-4.1102 2.0603-1.7106 3.7751-3.7717 5.1446-6.1654 1.3816-2.4057 2.2421-4.9686 2.7571-7.7067h-23.536v-8.571h23.875 10.301zm-160.6 23.301h24.045l-12.022-30.839-12.022 30.839zm-15.458 13.878 27.48-67.335 27.486 67.335h-9.962l-2.0603-5.3131h-30.753l-2.2299 5.3131h-9.962zm-98.081-42.148v42.493h-9.2773v-68.538l43.629 51.922v-50.719h9.2773v67.335h-8.9319l-34.697-42.493zm-73.521 42.323h9.7924v-67.335h-9.7924v67.335zm-88.113-9.2541c3.2601 0 6.1808-0.68302 9.1016-2.0612 2.745-1.1968 5.3264-2.9074 7.3867-5.1318 2.2299-2.2365 3.7812-4.7993 4.981-7.7188 1.3755-2.9074 1.8906-6.1654 1.8906-9.4173 0-3.4333-0.51507-6.5159-1.8906-9.5986-1.1998-2.9134-2.7511-5.6576-4.981-7.882-2.0603-2.2244-4.6417-3.9349-7.3867-5.1438-2.9207-1.366-5.8415-1.8798-9.1016-1.8798-3.2661 0-6.1808 0.51378-8.9319 1.8798-2.9207 1.2089-5.3264 2.9195-7.5564 5.1438-2.0603 2.2244-3.7812 4.9685-4.9871 7.882-1.1998 3.0827-1.8845 6.1654-1.8845 9.5986 0 3.2519 0.68474 6.5099 1.8845 9.4173 1.2059 2.9195 2.9268 5.4823 4.9871 7.7188 2.2299 2.2244 4.6356 3.9349 7.5564 5.1318 2.7511 1.3781 5.6658 2.0612 8.9319 2.0612zm0-58.426c4.6356 0 9.1016 1.0276 13.228 2.7381 4.1205 1.7106 7.5564 4.1163 10.647 7.199 3.0965 3.0827 5.4961 6.6791 7.211 10.795 1.7209 4.1042 2.5814 8.565 2.5814 13.364 0 4.624-0.86047 8.9035-2.5814 13.02-1.7149 4.1163-4.1145 7.7067-7.211 10.795-3.0904 3.0827-6.5262 5.4823-10.647 7.1929-4.1266 1.8859-8.5926 2.7442-13.228 2.7442s-9.1076-0.85831-13.058-2.7442c-4.1205-1.7106-7.726-4.1102-10.647-7.1929-3.0904-3.0887-5.4961-6.6791-7.211-10.795-1.7209-4.1163-2.7511-8.3958-2.7511-13.02 0-4.7993 1.0301-9.2601 2.7511-13.364 1.7149-4.1163 4.1205-7.7127 7.211-10.795 2.9207-3.0827 6.5262-5.4884 10.647-7.199 3.9509-1.7106 8.4229-2.7381 13.058-2.7381zm-114.91 58.426c3.9448 0 7.5564-1.0276 10.816-2.9134 3.2661-1.8859 6.0112-4.2795 8.0775-7.3682l8.0714 5.8269c-3.0965 4.2855-7.0413 7.5374-11.683 9.9371-4.6417 2.5689-9.6166 3.7657-15.282 3.7657-4.6417 0-8.938-0.85227-12.883-2.7381-4.1266-1.7166-7.5685-4.1163-10.653-7.1929-2.9268-3.0887-5.3264-6.5099-7.0413-10.626-1.8906-4.1163-2.7511-8.3958-2.7511-13.02 0-4.7993 0.86047-9.0788 2.7511-13.195 1.7149-3.941 4.1145-7.5374 7.0413-10.626 3.0844-3.0827 6.5262-5.4823 10.653-7.1929 3.9448-1.7106 8.2411-2.5689 12.883-2.5689 5.6658 0 10.641 1.1968 15.282 3.5965 4.6417 2.3997 8.5865 5.8269 11.683 9.9371l-8.0714 5.9961c-2.0663-3.258-4.8113-5.6516-8.0775-7.5435-3.2601-1.8798-6.8716-2.7381-10.816-2.7381-3.0965 0-6.1869 0.51378-8.938 1.8859-2.745 1.2028-5.1567 3.0827-7.3867 5.1378-2.0603 2.2304-3.6055 4.7993-4.981 7.7127-1.1998 3.0827-1.7149 6.1654-1.7149 9.5986 0 3.2519 0.51507 6.5099 1.7149 9.4173 1.3755 2.9195 2.9207 5.4823 4.981 7.7188 2.2299 2.2244 4.6417 3.9349 7.3867 5.1318 2.7511 1.3781 5.8415 2.0612 8.938 2.0612z" fill="#000"/>
<path d="m149.93 187.11c-9.453 4.2795-20.094 6.6791-31.092 6.6791-41.914 0-75.921-33.928-75.921-75.731 0-41.81 34.007-75.731 75.921-75.731 10.998 0 21.639 2.2244 31.092 6.5099l20.954-36.496c-15.628-7.7067-33.322-11.992-52.046-11.992-65.099 0-118 52.605-118 117.71 0 64.936 52.901 117.71 118 117.71 18.724 0 36.418-4.4548 52.046-12.168l-20.954-36.49z" fill="#000"/>
<path d="m159.72 181.97 20.96 36.321c11.677-7.199 21.984-16.278 30.571-27.073l-34.007-24.674c-4.9871 5.9961-10.998 11.14-17.524 15.425" fill="#B27200"/>
<path d="m217.26 183c7.211-10.626 12.537-22.618 15.804-35.469l-41.054-8.7343c-2.0603 7.0237-4.975 13.534-8.7562 19.53l34.007 24.674z" fill="#BD7D00"/>
<path d="m235.3 137.6c1.0301-6.3406 1.5452-12.851 1.5452-19.53 0-6.6852-0.51507-13.195-1.5452-19.536l-41.224 8.7343c0.51507 3.6025 0.6908 7.199 0.6908 10.801 0 3.5904-0.17573 7.1929-0.6908 10.795l41.224 8.7343z" fill="#E29B02"/>
<path d="m233.06 88.591c-3.2661-12.851-8.5926-24.843-15.804-35.638l-34.182 24.849c3.9509 5.9901 6.8716 12.5 8.9319 19.53l41.054-8.7403z" fill="#FFC335"/>
<path d="m211.25 44.899c-8.5865-10.789-18.894-19.874-30.571-27.073l-20.96 36.327c6.5262 4.2855 12.537 9.4233 17.524 15.419l34.007-24.674z" fill="#FFCD4F"/>
</g>
</g>
</svg>
